<svg width="44" height="44" viewBox="0 0 44 44" fill="none" xmlns="http://www.w3.org/2000/svg">
<rect x="0.5" y="0.5" width="43" height="43" rx="21.5" fill="black"/>
<rect x="0.5" y="0.5" width="43" height="43" rx="21.5" stroke="#4D4D4D"/>
<path d="M25.6133 16.7788C25.7923 16.7788 26.0975 16.8073 26.5288 16.8643C26.9601 16.9212 27.4321 17.084 27.9448 17.3525C28.4657 17.613 28.9377 18.0483 29.3608 18.6587C29.3364 18.6831 29.2184 18.7726 29.0068 18.9272C28.7952 19.0737 28.5592 19.2935 28.2988 19.5864C28.0384 19.8713 27.8105 20.2375 27.6152 20.6851C27.4199 21.1245 27.3223 21.6494 27.3223 22.2598C27.3223 22.9596 27.4443 23.5537 27.6885 24.042C27.9408 24.5303 28.2297 24.925 28.5552 25.2261C28.8888 25.519 29.1818 25.7347 29.4341 25.873C29.6945 26.0114 29.8328 26.0846 29.8491 26.0928C29.841 26.1253 29.7352 26.4142 29.5317 26.9595C29.3364 27.5047 29.0109 28.111 28.5552 28.7783C28.1564 29.3561 27.7251 29.8892 27.2612 30.3774C26.8055 30.8657 26.2562 31.1099 25.6133 31.1099C25.182 31.1099 24.828 31.0488 24.5513 30.9268C24.2746 30.7965 23.9897 30.6704 23.6968 30.5483C23.4038 30.4181 23.0091 30.353 22.5127 30.353C22.0326 30.353 21.6297 30.4181 21.3042 30.5483C20.9868 30.6785 20.6816 30.8088 20.3887 30.939C20.1038 31.0692 19.7661 31.1343 19.3755 31.1343C18.7814 31.1343 18.2606 30.8983 17.813 30.4263C17.3654 29.9543 16.9056 29.3887 16.4336 28.7295C15.8883 27.9482 15.4204 26.9961 15.0298 25.873C14.6473 24.7419 14.4561 23.6025 14.4561 22.4551C14.4561 21.2262 14.688 20.1968 15.1519 19.3667C15.6157 18.5285 16.2098 17.8978 16.9341 17.4746C17.6665 17.0433 18.4233 16.8276 19.2046 16.8276C19.6196 16.8276 20.0103 16.8968 20.3765 17.0352C20.7427 17.1654 21.0845 17.2996 21.4019 17.438C21.7274 17.5763 22.0203 17.6455 22.2808 17.6455C22.533 17.6455 22.826 17.5723 23.1597 17.4258C23.4933 17.2793 23.8677 17.1369 24.2827 16.9985C24.6978 16.8521 25.1413 16.7788 25.6133 16.7788ZM24.9419 15.2285C24.6245 15.611 24.2257 15.9325 23.7456 16.1929C23.2655 16.4451 22.8097 16.5713 22.3784 16.5713C22.2889 16.5713 22.2035 16.5632 22.1221 16.5469C22.1139 16.5225 22.1058 16.4777 22.0977 16.4126C22.0895 16.3475 22.0854 16.2783 22.0854 16.2051C22.0854 15.7168 22.1912 15.2448 22.4028 14.7891C22.6144 14.3252 22.8545 13.9427 23.123 13.6416C23.4648 13.2347 23.8962 12.897 24.417 12.6284C24.9378 12.3599 25.4342 12.2174 25.9062 12.2012C25.9307 12.307 25.9429 12.4331 25.9429 12.5796C25.9429 13.0679 25.8493 13.5439 25.6621 14.0078C25.4749 14.4635 25.2349 14.8704 24.9419 15.2285Z" fill="white"/>
</svg>
