<svg width="41" height="41" viewBox="0 0 41 41" fill="none" xmlns="http://www.w3.org/2000/svg">
<g clip-path="url(#clip0_595_9348)">
<path d="M40.1492 20.2461C40.1492 9.47654 31.4187 0.746094 20.6492 0.746094C9.87962 0.746094 1.14917 9.47654 1.14917 20.2461C1.14917 31.0156 9.87962 39.7461 20.6492 39.7461C31.4187 39.7461 40.1492 31.0156 40.1492 20.2461Z" fill="white"/>
<mask id="mask0_595_9348" style="mask-type:luminance" maskUnits="userSpaceOnUse" x="10" y="10" width="21" height="21">
<path d="M30.6492 10.2461H10.6492V30.2461H30.6492V10.2461Z" fill="white"/>
</mask>
<g mask="url(#mask0_595_9348)">
<path d="M30.2492 20.4735C30.2492 19.7644 30.1856 19.0826 30.0674 18.428H20.6492V22.2962H26.031C25.7992 23.5462 25.0947 24.6053 24.0356 25.3144V27.8235H27.2674C29.1583 26.0826 30.2492 23.5189 30.2492 20.4735Z" fill="#4285F4"/>
<path d="M20.6492 30.246C23.3492 30.246 25.6128 29.3505 27.2673 27.8233L24.0355 25.3142C23.1401 25.9142 21.9946 26.2687 20.6492 26.2687C18.0446 26.2687 15.8401 24.5096 15.0537 22.146H11.7128V24.7369C13.3583 28.0051 16.7401 30.246 20.6492 30.246Z" fill="#34A853"/>
<path d="M15.0537 22.146C14.8537 21.546 14.7401 20.9051 14.7401 20.246C14.7401 19.5869 14.8537 18.946 15.0537 18.346V15.7551H11.7128C11.0356 17.1051 10.6492 18.6324 10.6492 20.246C10.6492 21.8596 11.0356 23.3869 11.7128 24.7369L15.0537 22.146Z" fill="#FBBC04"/>
<path d="M20.6492 14.2234C22.1173 14.2234 23.4355 14.7279 24.4719 15.7188L27.3401 12.8506C25.6083 11.237 23.3446 10.2461 20.6492 10.2461C16.7401 10.2461 13.3583 12.487 11.7128 15.7552L15.0537 18.3461C15.8401 15.9825 18.0446 14.2234 20.6492 14.2234Z" fill="#E94235"/>
</g>
<path d="M40.1492 20.2461C40.1492 9.47654 31.4187 0.746094 20.6492 0.746094C9.87962 0.746094 1.14917 9.47654 1.14917 20.2461C1.14917 31.0156 9.87962 39.7461 20.6492 39.7461C31.4187 39.7461 40.1492 31.0156 40.1492 20.2461Z" stroke="#747775"/>
</g>
<defs>
<clipPath id="clip0_595_9348">
<rect width="40" height="40" fill="white" transform="translate(0.64917 0.246094)"/>
</clipPath>
</defs>
</svg>
